<svg xmlns="http://www.w3.org/2000/svg" viewBox="0 0 64 64" width="64" height="64" role="img" aria-label="Microsoft Copilot">
  <defs>
    <linearGradient id="copilot-left" x1="0%" y1="100%" x2="100%" y2="0%">
      <stop offset="0%" stop-color="#0078D4"/>
      <stop offset="50%" stop-color="#00BCF2"/>
      <stop offset="100%" stop-color="#7719AA"/>
    </linearGradient>
    <linearGradient id="copilot-right" x1="0%" y1="100%" x2="100%" y2="0%">
      <stop offset="0%" stop-color="#E3008C"/>
      <stop offset="50%" stop-color="#F7630C"/>
      <stop offset="100%" stop-color="#FFB900"/>
    </linearGradient>
  </defs>
  <rect width="64" height="64" rx="14" fill="#FFFFFF"/>
  <rect x="1" y="1" width="62" height="62" rx="13" fill="none" stroke="rgba(0,0,0,0.08)" stroke-width="1.5"/>
  <!-- Copilot Ribbon Loop: Right Segment -->
  <path d="M43.5 24 C46.5 19 44.5 14 39.5 13.5 C34.5 13 29 17 25 22.5 L36 34.5 C40 29.5 41.5 27 43.5 24 Z" fill="url(#copilot-right)"/>
  <path d="M21 39 C17.5 44 19 49.5 24 50.5 C29 51.5 35 47.5 39 42 L28 30 C24 34.5 22.5 37 21 39 Z" fill="url(#copilot-left)"/>
  <!-- Copilot Intersecting Ribbons -->
  <path d="M25 22.5 C21 28 17.5 34 21 39 L32 27 C30 24.5 27.5 23 25 22.5 Z" fill="#0078D4" opacity="0.9"/>
  <path d="M39 42 C43 36.5 46.5 30.5 43.5 24 L32 36 C34.5 38.5 37 40.5 39 42 Z" fill="#E3008C" opacity="0.9"/>
</svg>
